<svg width="30" height="30" viewBox="0 0 30 30" fill="none" xmlns="http://www.w3.org/2000/svg">
<path fill-rule="evenodd" clip-rule="evenodd" d="M15 5.25C15.5523 5.25 16 5.69772 16 6.25L16 23.75C16 24.3023 15.5523 24.75 15 24.75C14.4477 24.75 14 24.3023 14 23.75L14 6.25C14 5.69772 14.4477 5.25 15 5.25Z" fill="black"/>
<path fill-rule="evenodd" clip-rule="evenodd" d="M24.4571 14.2929C24.8476 14.6834 24.8476 15.3166 24.4571 15.7071L15.7071 24.4571C15.3166 24.8476 14.6834 24.8476 14.2929 24.4571L5.54289 15.7071C5.15237 15.3166 5.15237 14.6834 5.54289 14.2929C5.93342 13.9024 6.56658 13.9024 6.95711 14.2929L15 22.3358L23.0429 14.2929C23.4334 13.9024 24.0666 13.9024 24.4571 14.2929Z" fill="black"/>
</svg>
