<svg width="30" height="30" viewBox="0 0 30 30" fill="none" xmlns="http://www.w3.org/2000/svg">
<path fill-rule="evenodd" clip-rule="evenodd" d="M7 12.3333C7 7.73096 10.731 4 15.3333 4C19.9357 4 23.6667 7.73096 23.6667 12.3333V17.6667C23.6667 22.269 19.9357 26 15.3333 26C10.731 26 7 22.269 7 17.6667V12.3333ZM15.3333 6C11.8355 6 9 8.83553 9 12.3333V17.6667C9 21.1645 11.8355 24 15.3333 24C18.8311 24 21.6667 21.1645 21.6667 17.6667V12.3333C21.6667 8.83553 18.8311 6 15.3333 6Z" fill="black"/>
<path fill-rule="evenodd" clip-rule="evenodd" d="M15.3335 9.33334C15.8858 9.33334 16.3335 9.78106 16.3335 10.3333V13C16.3335 13.5523 15.8858 14 15.3335 14C14.7812 14 14.3335 13.5523 14.3335 13V10.3333C14.3335 9.78106 14.7812 9.33334 15.3335 9.33334Z" fill="black"/>
</svg>
